<svg xmlns="http://www.w3.org/2000/svg" width="102" height="32" viewBox="0 0 102 32"><path d="M82.2266 17.14C86.4368 17.14 89.853 20.4683 89.853 24.57C89.853 28.6718 86.4368 32 82.2266 32C78.0165 32 74.6003 28.6718 74.6003 24.57C74.6003 20.4683 78.0165 17.14 82.2266 17.14ZM75.1393 3.96904L74.6295 10.4481C76.1227 10.37 77.5649 10.3062 78.9052 10.2636C79.3932 10.2494 79.6481 10.0578 79.8521 9.76684C80.1434 9.34105 80.6096 8.36884 80.7698 7.89338C80.8937 7.53855 80.8645 7.37534 80.5513 6.95665C80.1289 6.39603 77.3318 4.97674 75.1321 3.97614L75.1393 3.96904ZM73.5004 10.5049L74.1269 3.52197C73.4567 3.23811 72.9177 3.02522 72.6336 2.94715C70.9146 2.4575 69.1155 2.14526 67.3746 2.12397L61.5474 2.053C61.2124 2.053 60.8118 2.23041 60.7316 2.42911C60.2655 3.61422 60.1489 5.22511 59.5444 10.1004C59.3768 11.4345 59.4642 11.0726 60.9866 11.0513C64.7233 11.0087 69.2685 10.7249 73.5077 10.4978L73.5004 10.5049ZM94.0412 27.8557C95.5854 27.7421 97.3409 27.6002 98.7248 27.366C99.8028 27.1886 100.662 26.9473 101.012 26.628C102.134 25.6132 102.003 22.4482 101.988 20.8302C101.988 20.4328 100.954 20.4328 100.932 20.0212C100.786 17.5233 100.604 14.7556 100.32 12.1867C99.9849 9.09977 93.4949 8.99333 89.5179 7.76564C86.6917 6.89278 84.3608 5.02641 80.7261 3.4581C76.7272 1.73366 73.2382 0.158251 69.0281 0.158251C62.1957 0.158251 52.0346 -0.636551 45.6757 1.33626C39.5863 3.22392 34.0359 6.63021 28.2524 9.29138C21.2598 10.0152 13.4951 11.399 6.40781 13.1093C4.11336 13.6628 3.11545 14.6989 2.41619 16.0259C1.65137 17.4736 1.28718 18.829 0.930262 19.6522C0.369397 19.6948 0.347538 19.5599 0.172723 19.8793C-0.0166599 20.2128 0.0926009 20.6599 0.0488971 21.2134C-0.0457945 22.4553 -0.0239381 24.1017 0.30384 25.2158C0.617051 26.2874 0.89384 26.8054 1.44014 27.2028C1.85532 27.5079 2.35064 27.735 2.93335 27.7563L5.52644 27.8415C7.07793 27.5647 6.78657 27.3731 6.68459 25.45C6.67002 25.159 6.66274 24.8681 6.66274 24.5771C6.66274 19.2406 11.0987 14.9189 16.5762 14.9189C22.0538 14.9189 26.4897 19.2406 26.4897 24.5771C26.4897 25.1164 26.4751 25.6487 26.4387 26.1738C26.2056 29.4098 25.8997 28.8492 28.908 28.9982L70.4994 28.9556C72.7138 28.6576 72.59 28.9272 72.3569 26.2164C72.3132 25.6842 72.2986 25.1377 72.2986 24.5771C72.2986 19.2406 76.7345 14.9189 82.2121 14.9189C87.6896 14.9189 92.1255 19.2406 92.1255 24.5771C92.1255 25.0313 92.111 25.4926 92.0746 25.9396C91.8997 28.1537 92.5335 27.9763 94.0194 27.8628L94.0412 27.8557ZM38.9599 11.8106C39.0108 11.619 39.2731 10.8952 39.3168 10.1288C39.3969 8.8372 36.9786 8.74495 35.4781 8.8372C38.3844 6.72956 42.7038 4.48708 46.5643 3.18134C47.9264 2.74136 51.6121 2.16655 54.1688 2.11687L57.4539 2.04591C58.0439 2.03881 58.124 2.30847 57.9492 2.76265C57.3665 4.28838 57.1334 7.59533 56.7765 9.80942C56.6089 10.881 56.3467 11.1365 55.225 11.1435C50.789 11.179 38.9016 12.0093 38.9599 11.8035V11.8106ZM16.5981 17.1329C20.8082 17.1329 24.2244 20.4612 24.2244 24.5629C24.2244 28.6647 20.8082 31.9929 16.5981 31.9929C12.3879 31.9929 8.97176 28.6647 8.97176 24.5629C8.97176 20.4612 12.3879 17.1329 16.5981 17.1329Z" fill="#898C94"></path></svg>